solid OpenSCAD_Model
  facet normal -0.965926 -0.258819 0
    outer loop
      vertex -3.86632 14.4293 0
      vertex -6.44386 24.0488 1
      vertex -6.44386 24.0488 0
    endloop
  endfacet
  facet normal -0.965926 -0.258819 0
    outer loop
      vertex -6.44386 24.0488 1
      vertex -3.86632 14.4293 0
      vertex -3.86632 14.4293 1
    endloop
  endfacet
  facet normal -0.707107 -0.707107 0
    outer loop
      vertex -10.563 10.563 0
      vertex -17.605 17.605 1
      vertex -17.605 17.605 0
    endloop
  endfacet
  facet normal -0.707107 -0.707107 0
    outer loop
      vertex -17.605 17.605 1
      vertex -10.563 10.563 0
      vertex -10.563 10.563 1
    endloop
  endfacet
  facet normal 0.866025 0.5 0
    outer loop
      vertex -7.5 12.9904 1
      vertex -12.5 21.6506 0
      vertex -12.5 21.6506 1
    endloop
  endfacet
  facet normal 0.866025 0.5 0
    outer loop
      vertex -12.5 21.6506 0
      vertex -7.5 12.9904 1
      vertex -7.5 12.9904 0
    endloop
  endfacet
  facet normal -0.258819 -0.965926 0
    outer loop
      vertex -24.0488 6.44386 0
      vertex -14.4293 3.86632 1
      vertex -24.0488 6.44386 1
    endloop
  endfacet
  facet normal -0.258819 -0.965926 -0
    outer loop
      vertex -14.4293 3.86632 1
      vertex -24.0488 6.44386 0
      vertex -14.4293 3.86632 0
    endloop
  endfacet
  facet normal 0.5 0.866025 -0
    outer loop
      vertex -12.9192 7.45891 0
      vertex -21.532 12.4315 1
      vertex -12.9192 7.45891 1
    endloop
  endfacet
  facet normal 0.5 0.866025 0
    outer loop
      vertex -21.532 12.4315 1
      vertex -12.9192 7.45891 0
      vertex -21.532 12.4315 0
    endloop
  endfacet
  facet normal 0.258819 -0.965926 0
    outer loop
      vertex -24.0488 -6.44386 0
      vertex -14.4293 -3.86632 1
      vertex -24.0488 -6.44386 1
    endloop
  endfacet
  facet normal 0.258819 -0.965926 0
    outer loop
      vertex -14.4293 -3.86632 1
      vertex -24.0488 -6.44386 0
      vertex -14.4293 -3.86632 0
    endloop
  endfacet
  facet normal 1.77321e-16 1 -0
    outer loop
      vertex -15 2.65982e-15 0
      vertex -25 4.43303e-15 1
      vertex -15 2.65982e-15 1
    endloop
  endfacet
  facet normal 1.77321e-16 1 0
    outer loop
      vertex -25 4.43303e-15 1
      vertex -15 2.65982e-15 0
      vertex -25 4.43303e-15 0
    endloop
  endfacet
  facet normal 0.707107 -0.707107 0
    outer loop
      vertex -17.605 -17.605 1
      vertex -10.563 -10.563 0
      vertex -10.563 -10.563 1
    endloop
  endfacet
  facet normal 0.707107 -0.707107 0
    outer loop
      vertex -10.563 -10.563 0
      vertex -17.605 -17.605 1
      vertex -17.605 -17.605 0
    endloop
  endfacet
  facet normal -0.5 0.866025 0
    outer loop
      vertex -12.9192 -7.45891 0
      vertex -21.532 -12.4315 1
      vertex -12.9192 -7.45891 1
    endloop
  endfacet
  facet normal -0.5 0.866025 0
    outer loop
      vertex -21.532 -12.4315 1
      vertex -12.9192 -7.45891 0
      vertex -21.532 -12.4315 0
    endloop
  endfacet
  facet normal 0.965926 -0.258819 0
    outer loop
      vertex -6.44386 -24.0488 1
      vertex -3.86632 -14.4293 0
      vertex -3.86632 -14.4293 1
    endloop
  endfacet
  facet normal 0.965926 -0.258819 0
    outer loop
      vertex -3.86632 -14.4293 0
      vertex -6.44386 -24.0488 1
      vertex -6.44386 -24.0488 0
    endloop
  endfacet
  facet normal -0.866025 0.5 0
    outer loop
      vertex -12.5 -21.6506 0
      vertex -7.5 -12.9904 1
      vertex -7.5 -12.9904 0
    endloop
  endfacet
  facet normal -0.866025 0.5 0
    outer loop
      vertex -7.5 -12.9904 1
      vertex -12.5 -21.6506 0
      vertex -12.5 -21.6506 1
    endloop
  endfacet
  facet normal 0.965926 0.258819 0
    outer loop
      vertex 6.44386 -24.0488 1
      vertex 3.86632 -14.4293 0
      vertex 3.86632 -14.4293 1
    endloop
  endfacet
  facet normal 0.965926 0.258819 0
    outer loop
      vertex 3.86632 -14.4293 0
      vertex 6.44386 -24.0488 1
      vertex 6.44386 -24.0488 0
    endloop
  endfacet
  facet normal -1 1.22465e-16 0
    outer loop
      vertex -3.04485e-15 -24.863 0
      vertex -1.82691e-15 -14.9178 1
      vertex -1.82691e-15 -14.9178 0
    endloop
  endfacet
  facet normal -1 1.22465e-16 0
    outer loop
      vertex -1.82691e-15 -14.9178 1
      vertex -3.04485e-15 -24.863 0
      vertex -3.04485e-15 -24.863 1
    endloop
  endfacet
  facet normal 0.707107 0.707107 0
    outer loop
      vertex 17.605 -17.605 1
      vertex 10.563 -10.563 0
      vertex 10.563 -10.563 1
    endloop
  endfacet
  facet normal 0.707107 0.707107 0
    outer loop
      vertex 10.563 -10.563 0
      vertex 17.605 -17.605 1
      vertex 17.605 -17.605 0
    endloop
  endfacet
  facet normal -0.866025 -0.5 0
    outer loop
      vertex 12.5 -21.6506 0
      vertex 7.5 -12.9904 1
      vertex 7.5 -12.9904 0
    endloop
  endfacet
  facet normal -0.866025 -0.5 0
    outer loop
      vertex 7.5 -12.9904 1
      vertex 12.5 -21.6506 0
      vertex 12.5 -21.6506 1
    endloop
  endfacet
  facet normal 0.258819 0.965926 -0
    outer loop
      vertex 24.0488 -6.44386 0
      vertex 14.4293 -3.86632 1
      vertex 24.0488 -6.44386 1
    endloop
  endfacet
  facet normal 0.258819 0.965926 0
    outer loop
      vertex 14.4293 -3.86632 1
      vertex 24.0488 -6.44386 0
      vertex 14.4293 -3.86632 0
    endloop
  endfacet
  facet normal -0.5 -0.866025 0
    outer loop
      vertex 12.9192 -7.45891 0
      vertex 21.532 -12.4315 1
      vertex 12.9192 -7.45891 1
    endloop
  endfacet
  facet normal -0.5 -0.866025 -0
    outer loop
      vertex 21.532 -12.4315 1
      vertex 12.9192 -7.45891 0
      vertex 21.532 -12.4315 0
    endloop
  endfacet
  facet normal -0.258819 0.965926 0
    outer loop
      vertex 24.0488 6.44386 0
      vertex 14.4293 3.86632 1
      vertex 24.0488 6.44386 1
    endloop
  endfacet
  facet normal -0.258819 0.965926 0
    outer loop
      vertex 14.4293 3.86632 1
      vertex 24.0488 6.44386 0
      vertex 14.4293 3.86632 0
    endloop
  endfacet
  facet normal -1.36718e-16 -1 0
    outer loop
      vertex 15 -2.05077e-15 0
      vertex 25 -3.41795e-15 1
      vertex 15 -2.05077e-15 1
    endloop
  endfacet
  facet normal -1.36718e-16 -1 -0
    outer loop
      vertex 25 -3.41795e-15 1
      vertex 15 -2.05077e-15 0
      vertex 25 -3.41795e-15 0
    endloop
  endfacet
  facet normal -0.707107 0.707107 0
    outer loop
      vertex 10.563 10.563 0
      vertex 17.605 17.605 1
      vertex 17.605 17.605 0
    endloop
  endfacet
  facet normal -0.707107 0.707107 0
    outer loop
      vertex 17.605 17.605 1
      vertex 10.563 10.563 0
      vertex 10.563 10.563 1
    endloop
  endfacet
  facet normal 0.5 -0.866025 0
    outer loop
      vertex 12.9192 7.45891 0
      vertex 21.532 12.4315 1
      vertex 12.9192 7.45891 1
    endloop
  endfacet
  facet normal 0.5 -0.866025 0
    outer loop
      vertex 21.532 12.4315 1
      vertex 12.9192 7.45891 0
      vertex 21.532 12.4315 0
    endloop
  endfacet
  facet normal -0.965926 0.258819 0
    outer loop
      vertex 3.86632 14.4293 0
      vertex 6.44386 24.0488 1
      vertex 6.44386 24.0488 0
    endloop
  endfacet
  facet normal -0.965926 0.258819 0
    outer loop
      vertex 6.44386 24.0488 1
      vertex 3.86632 14.4293 0
      vertex 3.86632 14.4293 1
    endloop
  endfacet
  facet normal 0.866025 -0.5 0
    outer loop
      vertex 7.5 12.9904 1
      vertex 12.5 21.6506 0
      vertex 12.5 21.6506 1
    endloop
  endfacet
  facet normal 0.866025 -0.5 0
    outer loop
      vertex 12.5 21.6506 0
      vertex 7.5 12.9904 1
      vertex 7.5 12.9904 0
    endloop
  endfacet
  facet normal 1 -2.44929e-16 0
    outer loop
      vertex 3.65381e-15 14.9178 1
      vertex 6.08969e-15 24.863 0
      vertex 6.08969e-15 24.863 1
    endloop
  endfacet
  facet normal 1 -2.44929e-16 0
    outer loop
      vertex 6.08969e-15 24.863 0
      vertex 3.65381e-15 14.9178 1
      vertex 3.65381e-15 14.9178 0
    endloop
  endfacet
  facet normal 0.866026 0.5 0
    outer loop
      vertex 21.532 12.4315 1
      vertex 20.2254 14.6946 0
      vertex 20.2254 14.6946 1
    endloop
  endfacet
  facet normal 0.866026 0.5 0
    outer loop
      vertex 20.2254 14.6946 0
      vertex 21.532 12.4315 1
      vertex 21.532 12.4315 0
    endloop
  endfacet
  facet normal 0 1 -0
    outer loop
      vertex 6.08969e-15 24.863 0
      vertex -2.61321 24.863 1
      vertex 6.08969e-15 24.863 1
    endloop
  endfacet
  facet normal 0 1 0
    outer loop
      vertex -2.61321 24.863 1
      vertex 6.08969e-15 24.863 0
      vertex -2.61321 24.863 0
    endloop
  endfacet
  facet normal -0.951057 0.309017 0
    outer loop
      vertex -24.0488 6.44386 0
      vertex -22.8386 10.1684 1
      vertex -22.8386 10.1684 0
    endloop
  endfacet
  facet normal -0.951057 0.309017 0
    outer loop
      vertex -22.8386 10.1684 1
      vertex -24.0488 6.44386 0
      vertex -24.0488 6.44386 1
    endloop
  endfacet
  facet normal 0.743145 0.669131 0
    outer loop
      vertex 20.2254 14.6946 1
      vertex 17.605 17.605 0
      vertex 17.605 17.605 1
    endloop
  endfacet
  facet normal 0.743145 0.669131 0
    outer loop
      vertex 17.605 17.605 0
      vertex 20.2254 14.6946 1
      vertex 20.2254 14.6946 0
    endloop
  endfacet
  facet normal 0.207911 0.978148 -0
    outer loop
      vertex 7.72542 23.7764 0
      vertex 6.44386 24.0488 1
      vertex 7.72542 23.7764 1
    endloop
  endfacet
  facet normal 0.207911 0.978148 0
    outer loop
      vertex 6.44386 24.0488 1
      vertex 7.72542 23.7764 0
      vertex 6.44386 24.0488 0
    endloop
  endfacet
  facet normal -0.866025 0.5 0
    outer loop
      vertex -22.8386 10.1684 0
      vertex -21.532 12.4315 1
      vertex -21.532 12.4315 0
    endloop
  endfacet
  facet normal -0.866025 0.5 0
    outer loop
      vertex -21.532 12.4315 1
      vertex -22.8386 10.1684 0
      vertex -22.8386 10.1684 1
    endloop
  endfacet
  facet normal 1 -0 0
    outer loop
      vertex 25 -3.41795e-15 1
      vertex 25 0 0
      vertex 25 0 1
    endloop
  endfacet
  facet normal 1 0 0
    outer loop
      vertex 25 0 0
      vertex 25 -3.41795e-15 1
      vertex 25 -3.41795e-15 0
    endloop
  endfacet
  facet normal 0.207912 -0.978148 0
    outer loop
      vertex 2.61321 -24.863 0
      vertex 6.44386 -24.0488 1
      vertex 2.61321 -24.863 1
    endloop
  endfacet
  facet normal 0.207912 -0.978148 0
    outer loop
      vertex 6.44386 -24.0488 1
      vertex 2.61321 -24.863 0
      vertex 6.44386 -24.0488 0
    endloop
  endfacet
  facet normal 0.406737 0.913545 -0
    outer loop
      vertex 12.5 21.6506 0
      vertex 7.72542 23.7764 1
      vertex 12.5 21.6506 1
    endloop
  endfacet
  facet normal 0.406737 0.913545 0
    outer loop
      vertex 7.72542 23.7764 1
      vertex 12.5 21.6506 0
      vertex 7.72542 23.7764 0
    endloop
  endfacet
  facet normal -1 0 0
    outer loop
      vertex -25 0 0
      vertex -25 4.43303e-15 1
      vertex -25 4.43303e-15 0
    endloop
  endfacet
  facet normal -1 -0 0
    outer loop
      vertex -25 4.43303e-15 1
      vertex -25 0 0
      vertex -25 0 1
    endloop
  endfacet
  facet normal -0.587785 0.809017 0
    outer loop
      vertex -12.5 21.6506 0
      vertex -16.7283 18.5786 1
      vertex -12.5 21.6506 1
    endloop
  endfacet
  facet normal -0.587785 0.809017 0
    outer loop
      vertex -16.7283 18.5786 1
      vertex -12.5 21.6506 0
      vertex -16.7283 18.5786 0
    endloop
  endfacet
  facet normal -0.207912 0.978148 0
    outer loop
      vertex -2.61321 24.863 0
      vertex -6.44386 24.0488 1
      vertex -2.61321 24.863 1
    endloop
  endfacet
  facet normal -0.207912 0.978148 0
    outer loop
      vertex -6.44386 24.0488 1
      vertex -2.61321 24.863 0
      vertex -6.44386 24.0488 0
    endloop
  endfacet
  facet normal -0.743145 0.66913 0
    outer loop
      vertex -17.605 17.605 0
      vertex -16.7283 18.5786 1
      vertex -16.7283 18.5786 0
    endloop
  endfacet
  facet normal -0.743145 0.66913 0
    outer loop
      vertex -16.7283 18.5786 1
      vertex -17.605 17.605 0
      vertex -17.605 17.605 1
    endloop
  endfacet
  facet normal 0.994522 0.104529 0
    outer loop
      vertex 25 0 1
      vertex 24.4537 5.19779 0
      vertex 24.4537 5.19779 1
    endloop
  endfacet
  facet normal 0.994522 0.104529 0
    outer loop
      vertex 24.4537 5.19779 0
      vertex 25 0 1
      vertex 25 0 0
    endloop
  endfacet
  facet normal 0.951057 -0.309017 0
    outer loop
      vertex 22.8386 -10.1684 1
      vertex 24.0488 -6.44386 0
      vertex 24.0488 -6.44386 1
    endloop
  endfacet
  facet normal 0.951057 -0.309017 0
    outer loop
      vertex 24.0488 -6.44386 0
      vertex 22.8386 -10.1684 1
      vertex 22.8386 -10.1684 0
    endloop
  endfacet
  facet normal -0.866026 -0.5 0
    outer loop
      vertex -20.2254 -14.6946 0
      vertex -21.532 -12.4315 1
      vertex -21.532 -12.4315 0
    endloop
  endfacet
  facet normal -0.866026 -0.5 0
    outer loop
      vertex -21.532 -12.4315 1
      vertex -20.2254 -14.6946 0
      vertex -20.2254 -14.6946 1
    endloop
  endfacet
  facet normal 0.587785 -0.809017 0
    outer loop
      vertex 12.5 -21.6506 0
      vertex 16.7283 -18.5786 1
      vertex 12.5 -21.6506 1
    endloop
  endfacet
  facet normal 0.587785 -0.809017 0
    outer loop
      vertex 16.7283 -18.5786 1
      vertex 12.5 -21.6506 0
      vertex 16.7283 -18.5786 0
    endloop
  endfacet
  facet normal 0.951056 0.309017 0
    outer loop
      vertex 24.4537 5.19779 1
      vertex 24.0488 6.44386 0
      vertex 24.0488 6.44386 1
    endloop
  endfacet
  facet normal 0.951056 0.309017 0
    outer loop
      vertex 24.0488 6.44386 0
      vertex 24.4537 5.19779 1
      vertex 24.4537 5.19779 0
    endloop
  endfacet
  facet normal 0 0 1
    outer loop
      vertex 7.72542 23.7764 1
      vertex 7.5 12.9904 1
      vertex 12.5 21.6506 1
    endloop
  endfacet
  facet normal 0 0 1
    outer loop
      vertex 3.86632 14.4293 1
      vertex 7.72542 23.7764 1
      vertex 6.44386 24.0488 1
    endloop
  endfacet
  facet normal 0 0 1
    outer loop
      vertex 7.72542 23.7764 1
      vertex 3.86632 14.4293 1
      vertex 7.5 12.9904 1
    endloop
  endfacet
  facet normal 0 0 1
    outer loop
      vertex 7.5 12.9904 1
      vertex 4 0 1
      vertex 7.5 -12.9904 1
    endloop
  endfacet
  facet normal -0 0 1
    outer loop
      vertex 3.54182 -1.85889 1
      vertex 7.5 -12.9904 1
      vertex 4 0 1
    endloop
  endfacet
  facet normal 0 0 1
    outer loop
      vertex 2.27226 3.29193 1
      vertex 7.5 12.9904 1
      vertex 3.86632 14.4293 1
    endloop
  endfacet
  facet normal 0 0 1
    outer loop
      vertex 7.5 12.9904 1
      vertex 3.54182 1.85889 1
      vertex 4 0 1
    endloop
  endfacet
  facet normal 0 0 1
    outer loop
      vertex 7.5 12.9904 1
      vertex 2.27226 3.29193 1
      vertex 3.54182 1.85889 1
    endloop
  endfacet
  facet normal 0 0 1
    outer loop
      vertex 0.482146 3.97083 1
      vertex 3.86632 14.4293 1
      vertex 1.56793 14.9178 1
    endloop
  endfacet
  facet normal 0 0 1
    outer loop
      vertex 3.86632 14.4293 1
      vertex 0.482146 3.97083 1
      vertex 2.27226 3.29193 1
    endloop
  endfacet
  facet normal -0 0 1
    outer loop
      vertex 3.65381e-15 14.9178 1
      vertex 0.482146 3.97083 1
      vertex 1.56793 14.9178 1
    endloop
  endfacet
  facet normal 0 0 1
    outer loop
      vertex 0.482146 3.97083 1
      vertex 3.65381e-15 14.9178 1
      vertex -1.41842 3.74006 1
    endloop
  endfacet
  facet normal -0 0 1
    outer loop
      vertex 2.27226 -3.29193 1
      vertex 7.5 -12.9904 1
      vertex 3.54182 -1.85889 1
    endloop
  endfacet
  facet normal 0 0 1
    outer loop
      vertex 7.5 -12.9904 1
      vertex 2.27226 -3.29193 1
      vertex 4.63525 -14.2658 1
    endloop
  endfacet
  facet normal 0 0 1
    outer loop
      vertex 10.563 10.563 1
      vertex 20.2254 14.6946 1
      vertex 17.605 17.605 1
    endloop
  endfacet
  facet normal 0 -0 1
    outer loop
      vertex 12.9192 7.45891 1
      vertex 20.2254 14.6946 1
      vertex 10.563 10.563 1
    endloop
  endfacet
  facet normal 0 0 1
    outer loop
      vertex 10.563 -10.563 1
      vertex 12.9192 -7.45891 1
      vertex 12.9192 7.45891 1
    endloop
  endfacet
  facet normal 0 0 1
    outer loop
      vertex 20.2254 14.6946 1
      vertex 12.9192 7.45891 1
      vertex 21.532 12.4315 1
    endloop
  endfacet
  facet normal 0 0 1
    outer loop
      vertex 10.563 -10.563 1
      vertex 12.9192 7.45891 1
      vertex 10.563 10.563 1
    endloop
  endfacet
  facet normal 0 0 1
    outer loop
      vertex 12.9192 -7.45891 1
      vertex 10.563 -10.563 1
      vertex 12.1353 -8.81678 1
    endloop
  endfacet
  facet normal 0 0 1
    outer loop
      vertex 7.5 12.9904 1
      vertex 10.563 10.563 1
      vertex 10.037 11.1472 1
    endloop
  endfacet
  facet normal 0 0 1
    outer loop
      vertex 15 -2.05077e-15 1
      vertex 25 0 1
      vertex 24.4537 5.19779 1
    endloop
  endfacet
  facet normal 0 0 1
    outer loop
      vertex 14.4293 3.86632 1
      vertex 24.4537 5.19779 1
      vertex 24.0488 6.44386 1
    endloop
  endfacet
  facet normal 0 0 1
    outer loop
      vertex 25 0 1
      vertex 15 -2.05077e-15 1
      vertex 25 -3.41795e-15 1
    endloop
  endfacet
  facet normal 0 0 1
    outer loop
      vertex 24.4537 5.19779 1
      vertex 14.4293 3.86632 1
      vertex 15 -2.05077e-15 1
    endloop
  endfacet
  facet normal 0 0 1
    outer loop
      vertex 14.4293 -3.86632 1
      vertex 15 -2.05077e-15 1
      vertex 14.4293 3.86632 1
    endloop
  endfacet
  facet normal 0 0 1
    outer loop
      vertex 15 -2.05077e-15 1
      vertex 14.4293 -3.86632 1
      vertex 14.6722 -3.11868 1
    endloop
  endfacet
  facet normal 0 0 1
    outer loop
      vertex 12.9192 7.45891 1
      vertex 14.4293 3.86632 1
      vertex 13.7032 6.10105 1
    endloop
  endfacet
  facet normal 0 0 1
    outer loop
      vertex 14.4293 -3.86632 1
      vertex 22.8386 -10.1684 1
      vertex 24.0488 -6.44386 1
    endloop
  endfacet
  facet normal -0 0 1
    outer loop
      vertex 12.9192 -7.45891 1
      vertex 22.8386 -10.1684 1
      vertex 14.4293 -3.86632 1
    endloop
  endfacet
  facet normal 0 0 1
    outer loop
      vertex 14.4293 3.86632 1
      vertex 12.9192 7.45891 1
      vertex 14.4293 -3.86632 1
    endloop
  endfacet
  facet normal 0 0 1
    outer loop
      vertex 22.8386 -10.1684 1
      vertex 12.9192 -7.45891 1
      vertex 21.532 -12.4315 1
    endloop
  endfacet
  facet normal 0 0 1
    outer loop
      vertex 12.9192 -7.45891 1
      vertex 14.4293 -3.86632 1
      vertex 12.9192 7.45891 1
    endloop
  endfacet
  facet normal 0 0 1
    outer loop
      vertex 10.563 -10.563 1
      vertex 16.7283 -18.5786 1
      vertex 17.605 -17.605 1
    endloop
  endfacet
  facet normal 0 0 1
    outer loop
      vertex 16.7283 -18.5786 1
      vertex 10.563 -10.563 1
      vertex 7.5 -12.9904 1
    endloop
  endfacet
  facet normal 0 0 1
    outer loop
      vertex 10.563 10.563 1
      vertex 7.5 12.9904 1
      vertex 10.563 -10.563 1
    endloop
  endfacet
  facet normal 0 0 1
    outer loop
      vertex 16.7283 -18.5786 1
      vertex 7.5 -12.9904 1
      vertex 12.5 -21.6506 1
    endloop
  endfacet
  facet normal 0 0 1
    outer loop
      vertex 7.5 -12.9904 1
      vertex 10.563 -10.563 1
      vertex 7.5 12.9904 1
    endloop
  endfacet
  facet normal 0 0 1
    outer loop
      vertex 3.86632 -14.4293 1
      vertex 2.61321 -24.863 1
      vertex 6.44386 -24.0488 1
    endloop
  endfacet
  facet normal -0 0 1
    outer loop
      vertex 0.482146 -3.97083 1
      vertex 4.63525 -14.2658 1
      vertex 2.27226 -3.29193 1
    endloop
  endfacet
  facet normal 0 0 1
    outer loop
      vertex 4.63525 -14.2658 1
      vertex 0.482146 -3.97083 1
      vertex 3.86632 -14.4293 1
    endloop
  endfacet
  facet normal 0 0 1
    outer loop
      vertex 3.86632 -14.4293 1
      vertex 0.482146 -3.97083 1
      vertex -1.82691e-15 -14.9178 1
    endloop
  endfacet
  facet normal 0 0 1
    outer loop
      vertex 3.86632 -14.4293 1
      vertex -1.82691e-15 -14.9178 1
      vertex 2.61321 -24.863 1
    endloop
  endfacet
  facet normal 0 0 1
    outer loop
      vertex 2.61321 -24.863 1
      vertex -1.82691e-15 -14.9178 1
      vertex -3.04485e-15 -24.863 1
    endloop
  endfacet
  facet normal 0 0 1
    outer loop
      vertex -3.88377 -0.957262 1
      vertex -13.7032 -6.10105 1
      vertex -12.9192 -7.45891 1
    endloop
  endfacet
  facet normal -0 0 1
    outer loop
      vertex -14.6722 3.11868 1
      vertex -3.88377 0.957262 1
      vertex -14.4293 3.86632 1
    endloop
  endfacet
  facet normal -0 0 1
    outer loop
      vertex -22.8386 10.1684 1
      vertex -12.9192 7.45891 1
      vertex -21.532 12.4315 1
    endloop
  endfacet
  facet normal 0 0 1
    outer loop
      vertex -12.9192 7.45891 1
      vertex -22.8386 10.1684 1
      vertex -14.4293 3.86632 1
    endloop
  endfacet
  facet normal 0 0 1
    outer loop
      vertex -14.4293 3.86632 1
      vertex -22.8386 10.1684 1
      vertex -24.0488 6.44386 1
    endloop
  endfacet
  facet normal 0 -0 1
    outer loop
      vertex -10.037 -11.1472 1
      vertex -3.88377 -0.957262 1
      vertex -10.563 -10.563 1
    endloop
  endfacet
  facet normal 0 0 1
    outer loop
      vertex -2.99404 2.65249 1
      vertex -12.9192 7.45891 1
      vertex -3.88377 0.957262 1
    endloop
  endfacet
  facet normal -0 0 1
    outer loop
      vertex -16.7283 18.5786 1
      vertex -7.5 12.9904 1
      vertex -12.5 21.6506 1
    endloop
  endfacet
  facet normal 0 0 1
    outer loop
      vertex -7.5 12.9904 1
      vertex -16.7283 18.5786 1
      vertex -10.563 10.563 1
    endloop
  endfacet
  facet normal 0 0 1
    outer loop
      vertex -10.563 10.563 1
      vertex -16.7283 18.5786 1
      vertex -17.605 17.605 1
    endloop
  endfacet
  facet normal 0 0 1
    outer loop
      vertex -3.88377 -0.957262 1
      vertex -10.037 -11.1472 1
      vertex -7.5 -12.9904 1
    endloop
  endfacet
  facet normal -0 0 1
    outer loop
      vertex -14.4293 3.86632 1
      vertex -3.88377 0.957262 1
      vertex -12.9192 7.45891 1
    endloop
  endfacet
  facet normal 0 0 1
    outer loop
      vertex -3.88377 0.957262 1
      vertex -13.7032 -6.10105 1
      vertex -3.88377 -0.957262 1
    endloop
  endfacet
  facet normal 0 0 1
    outer loop
      vertex -3.88377 -0.957262 1
      vertex -12.9192 -7.45891 1
      vertex -10.563 -10.563 1
    endloop
  endfacet
  facet normal 0 0 1
    outer loop
      vertex -20.2254 -14.6946 1
      vertex -10.563 -10.563 1
      vertex -12.9192 -7.45891 1
    endloop
  endfacet
  facet normal 0 0 1
    outer loop
      vertex -10.563 -10.563 1
      vertex -20.2254 -14.6946 1
      vertex -17.605 -17.605 1
    endloop
  endfacet
  facet normal 0 -0 1
    outer loop
      vertex -20.2254 -14.6946 1
      vertex -12.9192 -7.45891 1
      vertex -21.532 -12.4315 1
    endloop
  endfacet
  facet normal 0 0 1
    outer loop
      vertex -3.88377 0.957262 1
      vertex -14.4293 -3.86632 1
      vertex -13.7032 -6.10105 1
    endloop
  endfacet
  facet normal 0 0 1
    outer loop
      vertex -3.88377 0.957262 1
      vertex -14.6722 3.11868 1
      vertex -15 2.65982e-15 1
    endloop
  endfacet
  facet normal 0 0 1
    outer loop
      vertex -3.88377 0.957262 1
      vertex -15 2.65982e-15 1
      vertex -14.4293 -3.86632 1
    endloop
  endfacet
  facet normal 0 0 1
    outer loop
      vertex -24.4537 -5.19779 1
      vertex -14.4293 -3.86632 1
      vertex -15 2.65982e-15 1
    endloop
  endfacet
  facet normal 0 0 1
    outer loop
      vertex -14.4293 -3.86632 1
      vertex -24.4537 -5.19779 1
      vertex -24.0488 -6.44386 1
    endloop
  endfacet
  facet normal 0 0 1
    outer loop
      vertex -25 0 1
      vertex -15 2.65982e-15 1
      vertex -25 4.43303e-15 1
    endloop
  endfacet
  facet normal 0 0 1
    outer loop
      vertex -15 2.65982e-15 1
      vertex -25 0 1
      vertex -24.4537 -5.19779 1
    endloop
  endfacet
  facet normal 0 0 1
    outer loop
      vertex -1.56793 -14.9178 1
      vertex 0.482146 -3.97083 1
      vertex -1.41842 -3.74006 1
    endloop
  endfacet
  facet normal 0 0 1
    outer loop
      vertex 0.482146 -3.97083 1
      vertex -1.56793 -14.9178 1
      vertex -1.82691e-15 -14.9178 1
    endloop
  endfacet
  facet normal 0 0 1
    outer loop
      vertex -7.5 -12.9904 1
      vertex -1.41842 -3.74006 1
      vertex -2.99404 -2.65249 1
    endloop
  endfacet
  facet normal 0 0 1
    outer loop
      vertex -1.41842 -3.74006 1
      vertex -3.86632 -14.4293 1
      vertex -1.56793 -14.9178 1
    endloop
  endfacet
  facet normal 0 0 1
    outer loop
      vertex -7.5 -12.9904 1
      vertex -2.99404 -2.65249 1
      vertex -3.88377 -0.957262 1
    endloop
  endfacet
  facet normal 0 0 1
    outer loop
      vertex -7.5 12.9904 1
      vertex -10.563 10.563 1
      vertex -2.99404 2.65249 1
    endloop
  endfacet
  facet normal -0 0 1
    outer loop
      vertex -12.1353 8.81678 1
      vertex -2.99404 2.65249 1
      vertex -10.563 10.563 1
    endloop
  endfacet
  facet normal 0 0 1
    outer loop
      vertex -1.41842 -3.74006 1
      vertex -7.5 -12.9904 1
      vertex -3.86632 -14.4293 1
    endloop
  endfacet
  facet normal -0 0 1
    outer loop
      vertex -12.9192 7.45891 1
      vertex -2.99404 2.65249 1
      vertex -12.1353 8.81678 1
    endloop
  endfacet
  facet normal 0 0 1
    outer loop
      vertex -7.72542 -23.7764 1
      vertex -3.86632 -14.4293 1
      vertex -7.5 -12.9904 1
    endloop
  endfacet
  facet normal 0 0 1
    outer loop
      vertex -3.86632 -14.4293 1
      vertex -7.72542 -23.7764 1
      vertex -6.44386 -24.0488 1
    endloop
  endfacet
  facet normal 0 -0 1
    outer loop
      vertex -7.72542 -23.7764 1
      vertex -7.5 -12.9904 1
      vertex -12.5 -21.6506 1
    endloop
  endfacet
  facet normal -0 0 1
    outer loop
      vertex -2.61321 24.863 1
      vertex 3.65381e-15 14.9178 1
      vertex 6.08969e-15 24.863 1
    endloop
  endfacet
  facet normal 0 0 1
    outer loop
      vertex 3.65381e-15 14.9178 1
      vertex -2.61321 24.863 1
      vertex -3.86632 14.4293 1
    endloop
  endfacet
  facet normal 0 0 1
    outer loop
      vertex 3.65381e-15 14.9178 1
      vertex -3.86632 14.4293 1
      vertex -1.41842 3.74006 1
    endloop
  endfacet
  facet normal -0 0 1
    outer loop
      vertex -4.63525 14.2658 1
      vertex -1.41842 3.74006 1
      vertex -3.86632 14.4293 1
    endloop
  endfacet
  facet normal 0 -0 1
    outer loop
      vertex -3.86632 14.4293 1
      vertex -2.61321 24.863 1
      vertex -6.44386 24.0488 1
    endloop
  endfacet
  facet normal -0 0 1
    outer loop
      vertex -7.5 12.9904 1
      vertex -1.41842 3.74006 1
      vertex -4.63525 14.2658 1
    endloop
  endfacet
  facet normal 0 0 1
    outer loop
      vertex -1.41842 3.74006 1
      vertex -7.5 12.9904 1
      vertex -2.99404 2.65249 1
    endloop
  endfacet
  facet normal 0.866025 -0.5 0
    outer loop
      vertex 21.532 -12.4315 1
      vertex 22.8386 -10.1684 0
      vertex 22.8386 -10.1684 1
    endloop
  endfacet
  facet normal 0.866025 -0.5 0
    outer loop
      vertex 22.8386 -10.1684 0
      vertex 21.532 -12.4315 1
      vertex 21.532 -12.4315 0
    endloop
  endfacet
  facet normal -0.994522 -0.104529 0
    outer loop
      vertex -24.4537 -5.19779 0
      vertex -25 0 1
      vertex -25 0 0
    endloop
  endfacet
  facet normal -0.994522 -0.104529 0
    outer loop
      vertex -25 0 1
      vertex -24.4537 -5.19779 0
      vertex -24.4537 -5.19779 1
    endloop
  endfacet
  facet normal -0.207911 -0.978148 0
    outer loop
      vertex -7.72542 -23.7764 0
      vertex -6.44386 -24.0488 1
      vertex -7.72542 -23.7764 1
    endloop
  endfacet
  facet normal -0.207911 -0.978148 -0
    outer loop
      vertex -6.44386 -24.0488 1
      vertex -7.72542 -23.7764 0
      vertex -6.44386 -24.0488 0
    endloop
  endfacet
  facet normal 0 -1 0
    outer loop
      vertex -3.04485e-15 -24.863 0
      vertex 2.61321 -24.863 1
      vertex -3.04485e-15 -24.863 1
    endloop
  endfacet
  facet normal 0 -1 -0
    outer loop
      vertex 2.61321 -24.863 1
      vertex -3.04485e-15 -24.863 0
      vertex 2.61321 -24.863 0
    endloop
  endfacet
  facet normal 0 0 -1
    outer loop
      vertex 2.61321 -24.863 0
      vertex 3.86632 -14.4293 0
      vertex 6.44386 -24.0488 0
    endloop
  endfacet
  facet normal 0 0 -1
    outer loop
      vertex -1.82691e-15 -14.9178 0
      vertex 3.86632 -14.4293 0
      vertex 2.61321 -24.863 0
    endloop
  endfacet
  facet normal 0 -0 -1
    outer loop
      vertex 0.482146 -3.97083 0
      vertex 3.86632 -14.4293 0
      vertex -1.82691e-15 -14.9178 0
    endloop
  endfacet
  facet normal 0 0 -1
    outer loop
      vertex 3.86632 -14.4293 0
      vertex 2.27226 -3.29193 0
      vertex 3.54182 -1.85889 0
    endloop
  endfacet
  facet normal 0 0 -1
    outer loop
      vertex 3.86632 -14.4293 0
      vertex 0.482146 -3.97083 0
      vertex 2.27226 -3.29193 0
    endloop
  endfacet
  facet normal 0 -0 -1
    outer loop
      vertex -1.82691e-15 -14.9178 0
      vertex 2.61321 -24.863 0
      vertex -3.04485e-15 -24.863 0
    endloop
  endfacet
  facet normal 0 0 -1
    outer loop
      vertex 3.54182 -1.85889 0
      vertex 4.63525 -14.2658 0
      vertex 3.86632 -14.4293 0
    endloop
  endfacet
  facet normal 0 0 -1
    outer loop
      vertex 4.63525 -14.2658 0
      vertex 3.54182 -1.85889 0
      vertex 4 0 0
    endloop
  endfacet
  facet normal 0 0 -1
    outer loop
      vertex 7.5 -12.9904 0
      vertex 16.7283 -18.5786 0
      vertex 12.5 -21.6506 0
    endloop
  endfacet
  facet normal 0 -0 -1
    outer loop
      vertex 10.563 -10.563 0
      vertex 16.7283 -18.5786 0
      vertex 7.5 -12.9904 0
    endloop
  endfacet
  facet normal -0 0 -1
    outer loop
      vertex 13.7032 6.10105 0
      vertex 3.54182 1.85889 0
      vertex 12.9192 7.45891 0
    endloop
  endfacet
  facet normal -0 0 -1
    outer loop
      vertex 12.9192 7.45891 0
      vertex 3.54182 1.85889 0
      vertex 10.563 10.563 0
    endloop
  endfacet
  facet normal 0 0 -1
    outer loop
      vertex 16.7283 -18.5786 0
      vertex 10.563 -10.563 0
      vertex 17.605 -17.605 0
    endloop
  endfacet
  facet normal 0 0 -1
    outer loop
      vertex 4 0 0
      vertex 10.563 -10.563 0
      vertex 7.5 -12.9904 0
    endloop
  endfacet
  facet normal 0 0 -1
    outer loop
      vertex 2.27226 3.29193 0
      vertex 10.563 10.563 0
      vertex 3.54182 1.85889 0
    endloop
  endfacet
  facet normal -0 0 -1
    outer loop
      vertex 10.563 10.563 0
      vertex 2.27226 3.29193 0
      vertex 10.037 11.1472 0
    endloop
  endfacet
  facet normal 0 0 -1
    outer loop
      vertex 4 0 0
      vertex 7.5 -12.9904 0
      vertex 4.63525 -14.2658 0
    endloop
  endfacet
  facet normal 0 0 -1
    outer loop
      vertex 7.5 12.9904 0
      vertex 3.86632 14.4293 0
      vertex 6.44386 24.0488 0
    endloop
  endfacet
  facet normal -0 0 -1
    outer loop
      vertex 10.037 11.1472 0
      vertex 2.27226 3.29193 0
      vertex 7.5 12.9904 0
    endloop
  endfacet
  facet normal -0 0 -1
    outer loop
      vertex 7.5 12.9904 0
      vertex 2.27226 3.29193 0
      vertex 3.86632 14.4293 0
    endloop
  endfacet
  facet normal 0 0 -1
    outer loop
      vertex 0.482146 3.97083 0
      vertex 3.86632 14.4293 0
      vertex 2.27226 3.29193 0
    endloop
  endfacet
  facet normal -0 0 -1
    outer loop
      vertex 3.86632 14.4293 0
      vertex 0.482146 3.97083 0
      vertex 1.56793 14.9178 0
    endloop
  endfacet
  facet normal 0 0 -1
    outer loop
      vertex 0.482146 3.97083 0
      vertex 3.65381e-15 14.9178 0
      vertex 1.56793 14.9178 0
    endloop
  endfacet
  facet normal 0 -0 -1
    outer loop
      vertex 3.65381e-15 14.9178 0
      vertex 0.482146 3.97083 0
      vertex -1.41842 3.74006 0
    endloop
  endfacet
  facet normal 0 0 -1
    outer loop
      vertex 7.5 12.9904 0
      vertex 7.72542 23.7764 0
      vertex 12.5 21.6506 0
    endloop
  endfacet
  facet normal -0 0 -1
    outer loop
      vertex 7.72542 23.7764 0
      vertex 7.5 12.9904 0
      vertex 6.44386 24.0488 0
    endloop
  endfacet
  facet normal 0 0 -1
    outer loop
      vertex 12.9192 -7.45891 0
      vertex 22.8386 -10.1684 0
      vertex 21.532 -12.4315 0
    endloop
  endfacet
  facet normal 0 0 -1
    outer loop
      vertex 22.8386 -10.1684 0
      vertex 14.4293 -3.86632 0
      vertex 24.0488 -6.44386 0
    endloop
  endfacet
  facet normal 0 0 -1
    outer loop
      vertex 15 -2.05077e-15 0
      vertex 4 0 0
      vertex 14.4293 3.86632 0
    endloop
  endfacet
  facet normal 0 0 -1
    outer loop
      vertex 22.8386 -10.1684 0
      vertex 12.9192 -7.45891 0
      vertex 14.4293 -3.86632 0
    endloop
  endfacet
  facet normal 0 0 -1
    outer loop
      vertex 4 0 0
      vertex 14.4293 -3.86632 0
      vertex 12.9192 -7.45891 0
    endloop
  endfacet
  facet normal 0 0 -1
    outer loop
      vertex 3.54182 1.85889 0
      vertex 14.4293 3.86632 0
      vertex 4 0 0
    endloop
  endfacet
  facet normal 0 0 -1
    outer loop
      vertex 4 0 0
      vertex 12.1353 -8.81678 0
      vertex 10.563 -10.563 0
    endloop
  endfacet
  facet normal 0 0 -1
    outer loop
      vertex 15 -2.05077e-15 0
      vertex 25 0 0
      vertex 25 -3.41795e-15 0
    endloop
  endfacet
  facet normal -0 0 -1
    outer loop
      vertex 25 0 0
      vertex 15 -2.05077e-15 0
      vertex 24.4537 5.19779 0
    endloop
  endfacet
  facet normal 0 0 -1
    outer loop
      vertex 14.4293 3.86632 0
      vertex 24.4537 5.19779 0
      vertex 15 -2.05077e-15 0
    endloop
  endfacet
  facet normal 0 0 -1
    outer loop
      vertex 4 0 0
      vertex 14.6722 -3.11868 0
      vertex 14.4293 -3.86632 0
    endloop
  endfacet
  facet normal -0 0 -1
    outer loop
      vertex 24.4537 5.19779 0
      vertex 14.4293 3.86632 0
      vertex 24.0488 6.44386 0
    endloop
  endfacet
  facet normal 0 0 -1
    outer loop
      vertex 14.6722 -3.11868 0
      vertex 4 0 0
      vertex 15 -2.05077e-15 0
    endloop
  endfacet
  facet normal 0 0 -1
    outer loop
      vertex 12.9192 7.45891 0
      vertex 20.2254 14.6946 0
      vertex 21.532 12.4315 0
    endloop
  endfacet
  facet normal 0 0 -1
    outer loop
      vertex 20.2254 14.6946 0
      vertex 12.9192 7.45891 0
      vertex 10.563 10.563 0
    endloop
  endfacet
  facet normal 0 0 -1
    outer loop
      vertex 12.1353 -8.81678 0
      vertex 4 0 0
      vertex 12.9192 -7.45891 0
    endloop
  endfacet
  facet normal -0 0 -1
    outer loop
      vertex 20.2254 14.6946 0
      vertex 10.563 10.563 0
      vertex 17.605 17.605 0
    endloop
  endfacet
  facet normal -0 0 -1
    outer loop
      vertex 14.4293 3.86632 0
      vertex 3.54182 1.85889 0
      vertex 13.7032 6.10105 0
    endloop
  endfacet
  facet normal 0 0 -1
    outer loop
      vertex -3.86632 14.4293 0
      vertex 3.65381e-15 14.9178 0
      vertex -1.41842 3.74006 0
    endloop
  endfacet
  facet normal 0 -0 -1
    outer loop
      vertex -2.61321 24.863 0
      vertex 3.65381e-15 14.9178 0
      vertex -3.86632 14.4293 0
    endloop
  endfacet
  facet normal 0 0 -1
    outer loop
      vertex -7.5 12.9904 0
      vertex -1.41842 3.74006 0
      vertex -2.99404 2.65249 0
    endloop
  endfacet
  facet normal 0 0 -1
    outer loop
      vertex 3.65381e-15 14.9178 0
      vertex -2.61321 24.863 0
      vertex 6.08969e-15 24.863 0
    endloop
  endfacet
  facet normal 0 0 -1
    outer loop
      vertex -2.61321 24.863 0
      vertex -3.86632 14.4293 0
      vertex -6.44386 24.0488 0
    endloop
  endfacet
  facet normal 0 0 -1
    outer loop
      vertex -3.88377 -0.957262 0
      vertex -14.6722 3.11868 0
      vertex -14.4293 3.86632 0
    endloop
  endfacet
  facet normal 0 0 -1
    outer loop
      vertex -3.88377 -0.957262 0
      vertex -15 2.65982e-15 0
      vertex -14.6722 3.11868 0
    endloop
  endfacet
  facet normal 0 0 -1
    outer loop
      vertex -24.4537 -5.19779 0
      vertex -14.4293 -3.86632 0
      vertex -24.0488 -6.44386 0
    endloop
  endfacet
  facet normal -0 0 -1
    outer loop
      vertex -14.4293 -3.86632 0
      vertex -24.4537 -5.19779 0
      vertex -15 2.65982e-15 0
    endloop
  endfacet
  facet normal 0 0 -1
    outer loop
      vertex -25 0 0
      vertex -15 2.65982e-15 0
      vertex -24.4537 -5.19779 0
    endloop
  endfacet
  facet normal -0 0 -1
    outer loop
      vertex -15 2.65982e-15 0
      vertex -25 0 0
      vertex -25 4.43303e-15 0
    endloop
  endfacet
  facet normal 0 0 -1
    outer loop
      vertex -2.99404 2.65249 0
      vertex -12.1353 8.81678 0
      vertex -10.563 10.563 0
    endloop
  endfacet
  facet normal 0 0 -1
    outer loop
      vertex -13.7032 -6.10105 0
      vertex -3.88377 -0.957262 0
      vertex -12.9192 -7.45891 0
    endloop
  endfacet
  facet normal 0 0 -1
    outer loop
      vertex -20.2254 -14.6946 0
      vertex -10.563 -10.563 0
      vertex -17.605 -17.605 0
    endloop
  endfacet
  facet normal -0 0 -1
    outer loop
      vertex -10.563 -10.563 0
      vertex -20.2254 -14.6946 0
      vertex -12.9192 -7.45891 0
    endloop
  endfacet
  facet normal 0 0 -1
    outer loop
      vertex -12.9192 -7.45891 0
      vertex -20.2254 -14.6946 0
      vertex -21.532 -12.4315 0
    endloop
  endfacet
  facet normal 0 0 -1
    outer loop
      vertex -12.1353 8.81678 0
      vertex -2.99404 2.65249 0
      vertex -3.88377 0.957262 0
    endloop
  endfacet
  facet normal 0 0 -1
    outer loop
      vertex -1.41842 3.74006 0
      vertex -4.63525 14.2658 0
      vertex -3.86632 14.4293 0
    endloop
  endfacet
  facet normal 0 0 -1
    outer loop
      vertex -1.56793 -14.9178 0
      vertex 0.482146 -3.97083 0
      vertex -1.82691e-15 -14.9178 0
    endloop
  endfacet
  facet normal -0 0 -1
    outer loop
      vertex 0.482146 -3.97083 0
      vertex -1.56793 -14.9178 0
      vertex -1.41842 -3.74006 0
    endloop
  endfacet
  facet normal 0 0 -1
    outer loop
      vertex -3.86632 -14.4293 0
      vertex -1.41842 -3.74006 0
      vertex -1.56793 -14.9178 0
    endloop
  endfacet
  facet normal 0 0 -1
    outer loop
      vertex -7.5 -12.9904 0
      vertex -1.41842 -3.74006 0
      vertex -3.86632 -14.4293 0
    endloop
  endfacet
  facet normal -0 0 -1
    outer loop
      vertex -1.41842 -3.74006 0
      vertex -7.5 -12.9904 0
      vertex -2.99404 -2.65249 0
    endloop
  endfacet
  facet normal 0 0 -1
    outer loop
      vertex -12.1353 8.81678 0
      vertex -3.88377 0.957262 0
      vertex -3.88377 -0.957262 0
    endloop
  endfacet
  facet normal 0 0 -1
    outer loop
      vertex -10.037 -11.1472 0
      vertex -2.99404 -2.65249 0
      vertex -7.5 -12.9904 0
    endloop
  endfacet
  facet normal 0 0 -1
    outer loop
      vertex -7.72542 -23.7764 0
      vertex -3.86632 -14.4293 0
      vertex -6.44386 -24.0488 0
    endloop
  endfacet
  facet normal 0 0 -1
    outer loop
      vertex -10.563 -10.563 0
      vertex -2.99404 -2.65249 0
      vertex -10.037 -11.1472 0
    endloop
  endfacet
  facet normal -0 0 -1
    outer loop
      vertex -2.99404 -2.65249 0
      vertex -12.9192 -7.45891 0
      vertex -3.88377 -0.957262 0
    endloop
  endfacet
  facet normal -0 0 -1
    outer loop
      vertex -3.86632 -14.4293 0
      vertex -7.72542 -23.7764 0
      vertex -7.5 -12.9904 0
    endloop
  endfacet
  facet normal 0 0 -1
    outer loop
      vertex -7.5 -12.9904 0
      vertex -7.72542 -23.7764 0
      vertex -12.5 -21.6506 0
    endloop
  endfacet
  facet normal 0 0 -1
    outer loop
      vertex -2.99404 2.65249 0
      vertex -10.563 10.563 0
      vertex -7.5 12.9904 0
    endloop
  endfacet
  facet normal 0 0 -1
    outer loop
      vertex -12.9192 -7.45891 0
      vertex -2.99404 -2.65249 0
      vertex -10.563 -10.563 0
    endloop
  endfacet
  facet normal 0 0 -1
    outer loop
      vertex -1.41842 3.74006 0
      vertex -7.5 12.9904 0
      vertex -4.63525 14.2658 0
    endloop
  endfacet
  facet normal 0 0 -1
    outer loop
      vertex -16.7283 18.5786 0
      vertex -7.5 12.9904 0
      vertex -10.563 10.563 0
    endloop
  endfacet
  facet normal 0 0 -1
    outer loop
      vertex -7.5 12.9904 0
      vertex -16.7283 18.5786 0
      vertex -12.5 21.6506 0
    endloop
  endfacet
  facet normal 0 -0 -1
    outer loop
      vertex -16.7283 18.5786 0
      vertex -10.563 10.563 0
      vertex -17.605 17.605 0
    endloop
  endfacet
  facet normal 0 0 -1
    outer loop
      vertex -3.88377 -0.957262 0
      vertex -12.9192 7.45891 0
      vertex -12.1353 8.81678 0
    endloop
  endfacet
  facet normal 0 0 -1
    outer loop
      vertex -3.88377 -0.957262 0
      vertex -13.7032 -6.10105 0
      vertex -14.4293 -3.86632 0
    endloop
  endfacet
  facet normal 0 0 -1
    outer loop
      vertex -15 2.65982e-15 0
      vertex -3.88377 -0.957262 0
      vertex -14.4293 -3.86632 0
    endloop
  endfacet
  facet normal 0 0 -1
    outer loop
      vertex -3.88377 -0.957262 0
      vertex -14.4293 3.86632 0
      vertex -12.9192 7.45891 0
    endloop
  endfacet
  facet normal 0 0 -1
    outer loop
      vertex -22.8386 10.1684 0
      vertex -12.9192 7.45891 0
      vertex -14.4293 3.86632 0
    endloop
  endfacet
  facet normal 0 0 -1
    outer loop
      vertex -12.9192 7.45891 0
      vertex -22.8386 10.1684 0
      vertex -21.532 12.4315 0
    endloop
  endfacet
  facet normal 0 -0 -1
    outer loop
      vertex -22.8386 10.1684 0
      vertex -14.4293 3.86632 0
      vertex -24.0488 6.44386 0
    endloop
  endfacet
  facet normal -0.951056 -0.309017 0
    outer loop
      vertex -24.0488 -6.44386 0
      vertex -24.4537 -5.19779 1
      vertex -24.4537 -5.19779 0
    endloop
  endfacet
  facet normal -0.951056 -0.309017 0
    outer loop
      vertex -24.4537 -5.19779 1
      vertex -24.0488 -6.44386 0
      vertex -24.0488 -6.44386 1
    endloop
  endfacet
  facet normal -0.743145 -0.669131 0
    outer loop
      vertex -17.605 -17.605 0
      vertex -20.2254 -14.6946 1
      vertex -20.2254 -14.6946 0
    endloop
  endfacet
  facet normal -0.743145 -0.669131 0
    outer loop
      vertex -20.2254 -14.6946 1
      vertex -17.605 -17.605 0
      vertex -17.605 -17.605 1
    endloop
  endfacet
  facet normal 0.743145 -0.66913 0
    outer loop
      vertex 16.7283 -18.5786 1
      vertex 17.605 -17.605 0
      vertex 17.605 -17.605 1
    endloop
  endfacet
  facet normal 0.743145 -0.66913 0
    outer loop
      vertex 17.605 -17.605 0
      vertex 16.7283 -18.5786 1
      vertex 16.7283 -18.5786 0
    endloop
  endfacet
  facet normal -0.406737 -0.913545 0
    outer loop
      vertex -12.5 -21.6506 0
      vertex -7.72542 -23.7764 1
      vertex -12.5 -21.6506 1
    endloop
  endfacet
  facet normal -0.406737 -0.913545 -0
    outer loop
      vertex -7.72542 -23.7764 1
      vertex -12.5 -21.6506 0
      vertex -7.72542 -23.7764 0
    endloop
  endfacet
  facet normal 0.866025 0.5 0
    outer loop
      vertex 13.7032 6.10105 1
      vertex 12.9192 7.45891 0
      vertex 12.9192 7.45891 1
    endloop
  endfacet
  facet normal 0.866025 0.5 0
    outer loop
      vertex 12.9192 7.45891 0
      vertex 13.7032 6.10105 1
      vertex 13.7032 6.10105 0
    endloop
  endfacet
  facet normal -0.951056 0.309017 0
    outer loop
      vertex -14.6722 3.11868 0
      vertex -14.4293 3.86632 1
      vertex -14.4293 3.86632 0
    endloop
  endfacet
  facet normal -0.951056 0.309017 0
    outer loop
      vertex -14.4293 3.86632 1
      vertex -14.6722 3.11868 0
      vertex -14.6722 3.11868 1
    endloop
  endfacet
  facet normal 0.743145 0.66913 0
    outer loop
      vertex 10.563 10.563 1
      vertex 10.037 11.1472 0
      vertex 10.037 11.1472 1
    endloop
  endfacet
  facet normal 0.743145 0.66913 0
    outer loop
      vertex 10.037 11.1472 0
      vertex 10.563 10.563 1
      vertex 10.563 10.563 0
    endloop
  endfacet
  facet normal 0.207912 0.978148 -0
    outer loop
      vertex 3.86632 14.4293 0
      vertex 1.56793 14.9178 1
      vertex 3.86632 14.4293 1
    endloop
  endfacet
  facet normal 0.207912 0.978148 0
    outer loop
      vertex 1.56793 14.9178 1
      vertex 3.86632 14.4293 0
      vertex 1.56793 14.9178 0
    endloop
  endfacet
  facet normal -0.207911 0.978148 0
    outer loop
      vertex -3.86632 14.4293 0
      vertex -4.63525 14.2658 1
      vertex -3.86632 14.4293 1
    endloop
  endfacet
  facet normal -0.207911 0.978148 0
    outer loop
      vertex -4.63525 14.2658 1
      vertex -3.86632 14.4293 0
      vertex -4.63525 14.2658 0
    endloop
  endfacet
  facet normal -0.866025 0.5 0
    outer loop
      vertex -12.9192 7.45891 0
      vertex -12.1353 8.81678 1
      vertex -12.1353 8.81678 0
    endloop
  endfacet
  facet normal -0.866025 0.5 0
    outer loop
      vertex -12.1353 8.81678 1
      vertex -12.9192 7.45891 0
      vertex -12.9192 7.45891 1
    endloop
  endfacet
  facet normal 0.994522 -0.104529 0
    outer loop
      vertex 14.6722 -3.11868 1
      vertex 15 -2.05077e-15 0
      vertex 15 -2.05077e-15 1
    endloop
  endfacet
  facet normal 0.994522 -0.104529 0
    outer loop
      vertex 15 -2.05077e-15 0
      vertex 14.6722 -3.11868 1
      vertex 14.6722 -3.11868 0
    endloop
  endfacet
  facet normal 0 1 -0
    outer loop
      vertex 1.56793 14.9178 0
      vertex 3.65381e-15 14.9178 1
      vertex 1.56793 14.9178 1
    endloop
  endfacet
  facet normal 0 1 0
    outer loop
      vertex 3.65381e-15 14.9178 1
      vertex 1.56793 14.9178 0
      vertex 3.65381e-15 14.9178 0
    endloop
  endfacet
  facet normal 0.587785 0.809017 -0
    outer loop
      vertex 10.037 11.1472 0
      vertex 7.5 12.9904 1
      vertex 10.037 11.1472 1
    endloop
  endfacet
  facet normal 0.587785 0.809017 0
    outer loop
      vertex 7.5 12.9904 1
      vertex 10.037 11.1472 0
      vertex 7.5 12.9904 0
    endloop
  endfacet
  facet normal -0.994522 0.104529 0
    outer loop
      vertex -15 2.65982e-15 0
      vertex -14.6722 3.11868 1
      vertex -14.6722 3.11868 0
    endloop
  endfacet
  facet normal -0.994522 0.104529 0
    outer loop
      vertex -14.6722 3.11868 1
      vertex -15 2.65982e-15 0
      vertex -15 2.65982e-15 1
    endloop
  endfacet
  facet normal -0.743145 0.669131 0
    outer loop
      vertex -12.1353 8.81678 0
      vertex -10.563 10.563 1
      vertex -10.563 10.563 0
    endloop
  endfacet
  facet normal -0.743145 0.669131 0
    outer loop
      vertex -10.563 10.563 1
      vertex -12.1353 8.81678 0
      vertex -12.1353 8.81678 1
    endloop
  endfacet
  facet normal -0.406737 0.913545 0
    outer loop
      vertex -4.63525 14.2658 0
      vertex -7.5 12.9904 1
      vertex -4.63525 14.2658 1
    endloop
  endfacet
  facet normal -0.406737 0.913545 0
    outer loop
      vertex -7.5 12.9904 1
      vertex -4.63525 14.2658 0
      vertex -7.5 12.9904 0
    endloop
  endfacet
  facet normal -0.587785 -0.809017 0
    outer loop
      vertex -10.037 -11.1472 0
      vertex -7.5 -12.9904 1
      vertex -10.037 -11.1472 1
    endloop
  endfacet
  facet normal -0.587785 -0.809017 -0
    outer loop
      vertex -7.5 -12.9904 1
      vertex -10.037 -11.1472 0
      vertex -7.5 -12.9904 0
    endloop
  endfacet
  facet normal -0.866025 -0.5 0
    outer loop
      vertex -12.9192 -7.45891 0
      vertex -13.7032 -6.10105 1
      vertex -13.7032 -6.10105 0
    endloop
  endfacet
  facet normal -0.866025 -0.5 0
    outer loop
      vertex -13.7032 -6.10105 1
      vertex -12.9192 -7.45891 0
      vertex -12.9192 -7.45891 1
    endloop
  endfacet
  facet normal 0.951057 0.309017 0
    outer loop
      vertex 14.4293 3.86632 1
      vertex 13.7032 6.10105 0
      vertex 13.7032 6.10105 1
    endloop
  endfacet
  facet normal 0.951057 0.309017 0
    outer loop
      vertex 13.7032 6.10105 0
      vertex 14.4293 3.86632 1
      vertex 14.4293 3.86632 0
    endloop
  endfacet
  facet normal 0.866025 -0.5 0
    outer loop
      vertex 12.1353 -8.81678 1
      vertex 12.9192 -7.45891 0
      vertex 12.9192 -7.45891 1
    endloop
  endfacet
  facet normal 0.866025 -0.5 0
    outer loop
      vertex 12.9192 -7.45891 0
      vertex 12.1353 -8.81678 1
      vertex 12.1353 -8.81678 0
    endloop
  endfacet
  facet normal 0 -1 0
    outer loop
      vertex -1.56793 -14.9178 0
      vertex -1.82691e-15 -14.9178 1
      vertex -1.56793 -14.9178 1
    endloop
  endfacet
  facet normal 0 -1 -0
    outer loop
      vertex -1.82691e-15 -14.9178 1
      vertex -1.56793 -14.9178 0
      vertex -1.82691e-15 -14.9178 0
    endloop
  endfacet
  facet normal -0.743145 -0.66913 0
    outer loop
      vertex -10.037 -11.1472 0
      vertex -10.563 -10.563 1
      vertex -10.563 -10.563 0
    endloop
  endfacet
  facet normal -0.743145 -0.66913 0
    outer loop
      vertex -10.563 -10.563 1
      vertex -10.037 -11.1472 0
      vertex -10.037 -11.1472 1
    endloop
  endfacet
  facet normal 0.207911 -0.978148 0
    outer loop
      vertex 3.86632 -14.4293 0
      vertex 4.63525 -14.2658 1
      vertex 3.86632 -14.4293 1
    endloop
  endfacet
  facet normal 0.207911 -0.978148 0
    outer loop
      vertex 4.63525 -14.2658 1
      vertex 3.86632 -14.4293 0
      vertex 4.63525 -14.2658 0
    endloop
  endfacet
  facet normal 0.406737 -0.913545 0
    outer loop
      vertex 4.63525 -14.2658 0
      vertex 7.5 -12.9904 1
      vertex 4.63525 -14.2658 1
    endloop
  endfacet
  facet normal 0.406737 -0.913545 0
    outer loop
      vertex 7.5 -12.9904 1
      vertex 4.63525 -14.2658 0
      vertex 7.5 -12.9904 0
    endloop
  endfacet
  facet normal 0.951056 -0.309017 0
    outer loop
      vertex 14.4293 -3.86632 1
      vertex 14.6722 -3.11868 0
      vertex 14.6722 -3.11868 1
    endloop
  endfacet
  facet normal 0.951056 -0.309017 0
    outer loop
      vertex 14.6722 -3.11868 0
      vertex 14.4293 -3.86632 1
      vertex 14.4293 -3.86632 0
    endloop
  endfacet
  facet normal -0.207912 -0.978148 0
    outer loop
      vertex -3.86632 -14.4293 0
      vertex -1.56793 -14.9178 1
      vertex -3.86632 -14.4293 1
    endloop
  endfacet
  facet normal -0.207912 -0.978148 -0
    outer loop
      vertex -1.56793 -14.9178 1
      vertex -3.86632 -14.4293 0
      vertex -1.56793 -14.9178 0
    endloop
  endfacet
  facet normal -0.951057 -0.309017 0
    outer loop
      vertex -13.7032 -6.10105 0
      vertex -14.4293 -3.86632 1
      vertex -14.4293 -3.86632 0
    endloop
  endfacet
  facet normal -0.951057 -0.309017 0
    outer loop
      vertex -14.4293 -3.86632 1
      vertex -13.7032 -6.10105 0
      vertex -13.7032 -6.10105 1
    endloop
  endfacet
  facet normal 0.743145 -0.669131 0
    outer loop
      vertex 10.563 -10.563 1
      vertex 12.1353 -8.81678 0
      vertex 12.1353 -8.81678 1
    endloop
  endfacet
  facet normal 0.743145 -0.669131 0
    outer loop
      vertex 12.1353 -8.81678 0
      vertex 10.563 -10.563 1
      vertex 10.563 -10.563 0
    endloop
  endfacet
  facet normal -0.970942 -0.239316 0
    outer loop
      vertex 4 0 0
      vertex 3.54182 1.85889 1
      vertex 3.54182 1.85889 0
    endloop
  endfacet
  facet normal -0.970942 -0.239316 0
    outer loop
      vertex 3.54182 1.85889 1
      vertex 4 0 0
      vertex 4 0 1
    endloop
  endfacet
  facet normal 1 -0 0
    outer loop
      vertex -3.88377 -0.957262 1
      vertex -3.88377 0.957262 0
      vertex -3.88377 0.957262 1
    endloop
  endfacet
  facet normal 1 0 0
    outer loop
      vertex -3.88377 0.957262 0
      vertex -3.88377 -0.957262 1
      vertex -3.88377 -0.957262 0
    endloop
  endfacet
  facet normal 0.120537 -0.992709 0
    outer loop
      vertex -1.41842 3.74006 0
      vertex 0.482146 3.97083 1
      vertex -1.41842 3.74006 1
    endloop
  endfacet
  facet normal 0.120537 -0.992709 0
    outer loop
      vertex 0.482146 3.97083 1
      vertex -1.41842 3.74006 0
      vertex 0.482146 3.97083 0
    endloop
  endfacet
  facet normal -0.748511 -0.663123 0
    outer loop
      vertex 3.54182 1.85889 0
      vertex 2.27226 3.29193 1
      vertex 2.27226 3.29193 0
    endloop
  endfacet
  facet normal -0.748511 -0.663123 0
    outer loop
      vertex 2.27226 3.29193 1
      vertex 3.54182 1.85889 0
      vertex 3.54182 1.85889 1
    endloop
  endfacet
  facet normal 0.568065 -0.822984 0
    outer loop
      vertex -2.99404 2.65249 0
      vertex -1.41842 3.74006 1
      vertex -2.99404 2.65249 1
    endloop
  endfacet
  facet normal 0.568065 -0.822984 0
    outer loop
      vertex -1.41842 3.74006 1
      vertex -2.99404 2.65249 0
      vertex -1.41842 3.74006 0
    endloop
  endfacet
  facet normal -0.970942 0.239316 0
    outer loop
      vertex 3.54182 -1.85889 0
      vertex 4 0 1
      vertex 4 0 0
    endloop
  endfacet
  facet normal -0.970942 0.239316 0
    outer loop
      vertex 4 0 1
      vertex 3.54182 -1.85889 0
      vertex 3.54182 -1.85889 1
    endloop
  endfacet
  facet normal -0.354605 -0.935016 0
    outer loop
      vertex 0.482146 3.97083 0
      vertex 2.27226 3.29193 1
      vertex 0.482146 3.97083 1
    endloop
  endfacet
  facet normal -0.354605 -0.935016 -0
    outer loop
      vertex 2.27226 3.29193 1
      vertex 0.482146 3.97083 0
      vertex 2.27226 3.29193 0
    endloop
  endfacet
  facet normal 0.885456 0.464723 0
    outer loop
      vertex -2.99404 -2.65249 1
      vertex -3.88377 -0.957262 0
      vertex -3.88377 -0.957262 1
    endloop
  endfacet
  facet normal 0.885456 0.464723 0
    outer loop
      vertex -3.88377 -0.957262 0
      vertex -2.99404 -2.65249 1
      vertex -2.99404 -2.65249 0
    endloop
  endfacet
  facet normal -0.748511 0.663123 0
    outer loop
      vertex 2.27226 -3.29193 0
      vertex 3.54182 -1.85889 1
      vertex 3.54182 -1.85889 0
    endloop
  endfacet
  facet normal -0.748511 0.663123 0
    outer loop
      vertex 3.54182 -1.85889 1
      vertex 2.27226 -3.29193 0
      vertex 2.27226 -3.29193 1
    endloop
  endfacet
  facet normal 0.885456 -0.464723 0
    outer loop
      vertex -3.88377 0.957262 1
      vertex -2.99404 2.65249 0
      vertex -2.99404 2.65249 1
    endloop
  endfacet
  facet normal 0.885456 -0.464723 0
    outer loop
      vertex -2.99404 2.65249 0
      vertex -3.88377 0.957262 1
      vertex -3.88377 0.957262 0
    endloop
  endfacet
  facet normal 0.568065 0.822984 -0
    outer loop
      vertex -1.41842 -3.74006 0
      vertex -2.99404 -2.65249 1
      vertex -1.41842 -3.74006 1
    endloop
  endfacet
  facet normal 0.568065 0.822984 0
    outer loop
      vertex -2.99404 -2.65249 1
      vertex -1.41842 -3.74006 0
      vertex -2.99404 -2.65249 0
    endloop
  endfacet
  facet normal -0.354605 0.935016 0
    outer loop
      vertex 2.27226 -3.29193 0
      vertex 0.482146 -3.97083 1
      vertex 2.27226 -3.29193 1
    endloop
  endfacet
  facet normal -0.354605 0.935016 0
    outer loop
      vertex 0.482146 -3.97083 1
      vertex 2.27226 -3.29193 0
      vertex 0.482146 -3.97083 0
    endloop
  endfacet
  facet normal 0.120537 0.992709 -0
    outer loop
      vertex 0.482146 -3.97083 0
      vertex -1.41842 -3.74006 1
      vertex 0.482146 -3.97083 1
    endloop
  endfacet
  facet normal 0.120537 0.992709 0
    outer loop
      vertex -1.41842 -3.74006 1
      vertex 0.482146 -3.97083 0
      vertex -1.41842 -3.74006 0
    endloop
  endfacet
endsolid OpenSCAD_Model
